:SAMPLES-PER-SECOND 30
:FRAME-RANGE 1-668
:FULLY-SPECIFIED
:DEGREES
272
root  63.9272 39.2278 -18.121 -11.076 -70.1582 14.9005
RightUpLeg  -14.9139 -14.9244 -14.5193
RightLeg  41.8323 -8.89583 -8.70744
RightFoot  -7.26473 -0.457681 11.4308
RightToes  -1.33073e-015 0 -3.6325e-017
Spine  6.62989 -0.791327 -4.34859
Spine1  3.39636 -0.837597 -2.24609
HEad  -3.10172 23.1399 -12.4433
LeftShoulder1  1.47553 -0.944386 -27.0467
LeftArm  -5.33787 -23.2005 -9.67284
LeftForeArm  -1.34651 -18.9849 -7.70184
LeftHand  -0.0854922 -1.05156 1.65357
RightShoulder  4.95494 5.58959 47.751
RightArm  27.6342 -5.70366 11.2195
RightForeArm  1.42929 24.7864 5.23425
RightHand  -0.486294 3.99788 -6.2759
LeftUpLeg  -9.76475 7.7019 -6.45061
LeftLeg  16.4188 17.8952 0.714221
LeftFoot  -10.9664 0.0712767 -1.67513
LeftToes  -2.73175e-012 1.00346e-010 -4.28452e-011
273
root  63.4593 39.3199 -17.634 -7.61929 -68.1823 11.3422
RightUpLeg  -17.9965 -14.0016 -10.8695
RightLeg  41.3237 -11.6982 -11.075
RightFoot  -8.37772 -0.342088 10.9836
RightToes  -1.33073e-015 0 -3.6325e-017
Spine  6.61903 -1.39971 -5.17329
Spine1  3.49557 -1.78739 -0.646162
HEad  -3.11028 23.3998 -11.5777
LeftShoulder1  1.54394 -1.24787 -26.3477
LeftArm  -4.0191 -26.9345 -10.5887
LeftForeArm  0.246896 -19.2666 -7.45405
LeftHand  -0.0999538 -1.6218 1.80914
RightShoulder  4.98874 5.65548 47.73
RightArm  24.9504 -5.27086 11.2303
RightForeArm  3.64349 26.8102 5.57815
RightHand  -0.516373 3.97243 -6.66325
LeftUpLeg  -8.24362 6.55451 -5.97614
LeftLeg  15.1359 16.9723 0.154135
LeftFoot  -11.5148 0.0666201 -1.62401
LeftToes  -2.73175e-012 1.00346e-010 -4.28452e-011
274
root  62.9518 39.3978 -17.1264 -5.00742 -66.2324 8.61151
RightUpLeg  -20.257 -13.341 -7.36209
RightLeg  37.7685 -14.311 -11.8493
RightFoot  -8.65194 -0.315256 10.8858
RightToes  -1.33073e-015 0 -3.6325e-017
Spine  6.70906 -2.04064 -5.86631
Spine1  3.42967 -2.72904 0.859458
HEad  -3.10435 23.3552 -10.6485
LeftShoulder1  1.60942 -1.55997 -25.6136
LeftArm  -2.35799 -30.5663 -11.3335
LeftForeArm  0.824366 -19.727 -7.10772
LeftHand  -0.1219 -1.78802 2.13775
RightShoulder  4.92474 5.53947 47.723
RightArm  22.4568 -5.06228 11.3071
RightForeArm  6.25853 28.9113 5.9321
RightHand  -0.579748 3.86372 -7.527
LeftUpLeg  -6.6206 6.0559 -5.59325
LeftLeg  13.866 15.5231 -0.362015
LeftFoot  -11.9796 0.0638685 -1.43584
LeftToes  -2.73175e-012 1.00346e-010 -4.28452e-011
275
root  62.396 39.4362 -16.5855 -3.36713 -64.6853 6.84369
RightUpLeg  -21.6384 -12.7285 -4.23848
RightLeg  31.3011 -15.0967 -9.91328
RightFoot  -7.61213 -0.418156 11.2153
RightToes  -1.33073e-015 0 -3.6325e-017
Spine  6.6965 -2.53848 -6.48098
Spine1  3.49865 -3.46952 2.15154
HEad  -3.33457 23.4024 -10.0423
LeftShoulder1  1.66677 -1.87953 -24.7596
LeftArm  -1.2929 -34.0533 -12.0492
LeftForeArm  1.37581 -19.9748 -6.91991
LeftHand  -0.150536 -1.87346 2.5792
RightShoulder  4.78521 5.28703 47.7044
RightArm  20.4878 -5.02965 11.3437
RightForeArm  8.80524 31.1526 6.34049
RightHand  -0.616956 3.77108 -8.06683
LeftUpLeg  -4.85172 6.00085 -5.33515
LeftLeg  12.6862 13.9477 -0.842534
LeftFoot  -12.5058 0.0637385 -1.11059
LeftToes  -2.73175e-012 1.00346e-010 -4.28452e-011
276
root  61.7815 39.4064 -16.0016 -2.75491 -63.7088 6.27057
RightUpLeg  -22.3922 -12.664 -1.51457
RightLeg  22.9671 -13.3561 -6.33283
RightFoot  -6.57787 -0.54364 11.9496
RightToes  -1.33073e-015 0 -3.6325e-017
Spine  6.3257 -2.89002 -7.22636
Spine1  3.7133 -3.98358 3.13307
HEad  -3.20012 23.66 -9.49812
LeftShoulder1  1.71177 -2.17455 -23.9064
LeftArm  -0.173716 -37.0434 -12.7398
LeftForeArm  1.17655 -20.4087 -6.60691
LeftHand  -0.168902 -1.85595 2.8794
RightShoulder  4.70312 5.11637 47.8173
RightArm  19.0747 -5.06735 11.2051
RightForeArm  10.5927 33.0982 6.73686
RightHand  -0.661113 3.70506 -8.68218
LeftUpLeg  -3.15327 5.89349 -5.58461
LeftLeg  11.7559 13.2186 -0.919273
LeftFoot  -13.2837 0.0621405 -1.0348
LeftToes  -2.73175e-012 1.00346e-010 -4.28452e-011
277
root  61.0796 39.321 -15.3342 -2.82068 -62.9661 6.13559
RightUpLeg  -22.0418 -14.4204 1.27656
RightLeg  13.9083 -9.97963 -2.77783
RightFoot  -4.91768 -0.802878 13.6477
RightToes  -1.33073e-015 0 -3.6325e-017
Spine  5.92427 -3.28714 -7.7712
Spine1  3.90548 -4.50442 3.88601
HEad  -2.91009 24.2428 -9.29008
LeftShoulder1  1.7496 -2.43397 -23.1926
LeftArm  0.503969 -39.4203 -13.3558
LeftForeArm  1.12149 -20.6409 -6.44458
LeftHand  -0.180365 -1.81679 3.0772
RightShoulder  4.62006 4.97337 47.7659
RightArm  18.1611 -5.34757 11.2189
RightForeArm  12.1095 34.705 7.0764
RightHand  -0.671578 3.73732 -8.78599
LeftUpLeg  -0.980645 5.65172 -6.10848
LeftLeg  10.9265 12.7788 -0.698332
LeftFoot  -14.3205 0.0542061 -1.2182
LeftToes  -2.73175e-012 1.00346e-010 -4.28452e-011
278
root  60.2787 39.1492 -14.5814 -3.26007 -62.4656 6.15698
RightUpLeg  -20.0086 -9.91575 0.472198
RightLeg  5.66005 -15.5677 2.13462
RightFoot  -1.02561 -1.43019 15.6757
RightToes  -1.33073e-015 0 -3.6325e-017
Spine  5.29737 -3.70103 -8.16601
Spine1  4.31557 -5.06936 4.67834
HEad  -2.20977 25.1666 -9.27471
LeftShoulder1  1.76286 -2.57772 -22.6884
LeftArm  0.624627 -41.2828 -13.8976
LeftForeArm  1.2 -20.4896 -6.57968
LeftHand  -0.191319 -1.79269 3.26327
RightShoulder  4.50855 4.78907 47.6494
RightArm  17.7149 -5.40764 11.1247
RightForeArm  13.0377 35.7311 7.30328
RightHand  -0.678113 3.68609 -8.91545
LeftUpLeg  1.43193 5.64212 -6.61344
LeftLeg  10.6887 12.2898 -0.457241
LeftFoot  -15.8246 0.0468809 -1.22658
LeftToes  -2.73175e-012 1.00346e-010 -4.28452e-011
